<svg width="172" height="48" viewBox="0 0 172 48" fill="none" xmlns="http://www.w3.org/2000/svg">
<path d="M167.363 12.2022L167.789 17.96L162.59 15.4496L167.363 12.2022ZM106.338 25.9422C111.365 30.5492 122.306 34.9449 133.879 34.7269C145.414 34.5096 157.512 29.7117 164.966 16.0185L165.844 16.4967C158.185 30.5669 145.717 35.504 133.897 35.7267C122.115 35.9486 110.91 31.4892 105.662 26.6794L106.338 25.9422Z" fill="#0B2110"/>
<path d="M4.70829 28.084C4.12429 28.084 3.59629 27.984 3.12429 27.784C2.66029 27.584 2.29229 27.296 2.02029 26.92C1.74829 26.544 1.60829 26.1 1.60029 25.588H3.40029C3.42429 25.932 3.54429 26.204 3.76029 26.404C3.98429 26.604 4.28829 26.704 4.67229 26.704C5.06429 26.704 5.37229 26.612 5.59629 26.428C5.82029 26.236 5.93229 25.988 5.93229 25.684C5.93229 25.436 5.85629 25.232 5.70429 25.072C5.55229 24.912 5.36029 24.788 5.12829 24.7C4.90429 24.604 4.59229 24.5 4.19229 24.388C3.64829 24.228 3.20429 24.072 2.86029 23.92C2.52429 23.76 2.23229 23.524 1.98429 23.212C1.74429 22.892 1.62429 22.468 1.62429 21.94C1.62429 21.444 1.74829 21.012 1.99629 20.644C2.24429 20.276 2.59229 19.996 3.04029 19.804C3.48829 19.604 4.00029 19.504 4.57629 19.504C5.44029 19.504 6.14029 19.716 6.67629 20.14C7.22029 20.556 7.52029 21.14 7.57629 21.892H5.72829C5.71229 21.604 5.58829 21.368 5.35629 21.184C5.13229 20.992 4.83229 20.896 4.45629 20.896C4.12829 20.896 3.86429 20.98 3.66429 21.148C3.47229 21.316 3.37629 21.56 3.37629 21.88C3.37629 22.104 3.44829 22.292 3.59229 22.444C3.74429 22.588 3.92829 22.708 4.14429 22.804C4.36829 22.892 4.68029 22.996 5.08029 23.116C5.62429 23.276 6.06829 23.436 6.41229 23.596C6.75629 23.756 7.05229 23.996 7.30029 24.316C7.54829 24.636 7.67229 25.056 7.67229 25.576C7.67229 26.024 7.55629 26.44 7.32429 26.824C7.09229 27.208 6.75229 27.516 6.30429 27.748C5.85629 27.972 5.32429 28.084 4.70829 28.084ZM14.2648 26.404H10.9288L10.3768 28H8.61279L11.6248 19.612H13.5808L16.5928 28H14.8168L14.2648 26.404ZM13.8088 25.06L12.5968 21.556L11.3848 25.06H13.8088ZM25.2426 19.624L22.1706 28H20.1306L17.0586 19.624H18.8586L21.1626 26.284L23.4546 19.624H25.2426ZM27.9299 20.98V23.08H30.7499V24.412H27.9299V26.632H31.1099V28H26.2499V19.612H31.1099V20.98H27.9299ZM37.152 19.624V24.808C37.152 25.376 37.3 25.812 37.596 26.116C37.892 26.412 38.308 26.56 38.844 26.56C39.388 26.56 39.808 26.412 40.104 26.116C40.4 25.812 40.548 25.376 40.548 24.808V19.624H42.24V24.796C42.24 25.508 42.084 26.112 41.772 26.608C41.468 27.096 41.056 27.464 40.536 27.712C40.024 27.96 39.452 28.084 38.82 28.084C38.196 28.084 37.628 27.96 37.116 27.712C36.612 27.464 36.212 27.096 35.916 26.608C35.62 26.112 35.472 25.508 35.472 24.796V19.624H37.152ZM49.9712 22.216C49.9712 22.664 49.8632 23.084 49.6472 23.476C49.4392 23.868 49.1072 24.184 48.6512 24.424C48.2032 24.664 47.6352 24.784 46.9472 24.784H45.5432V28H43.8632V19.624H46.9472C47.5952 19.624 48.1472 19.736 48.6032 19.96C49.0592 20.184 49.3992 20.492 49.6232 20.884C49.8552 21.276 49.9712 21.72 49.9712 22.216ZM46.8752 23.428C47.3392 23.428 47.6832 23.324 47.9072 23.116C48.1312 22.9 48.2432 22.6 48.2432 22.216C48.2432 21.4 47.7872 20.992 46.8752 20.992H45.5432V23.428H46.8752ZM59.7233 19.624V20.98H57.4913V28H55.8113V20.98H53.5793V19.624H59.7233ZM64.8371 28.084C64.0531 28.084 63.3331 27.9 62.6771 27.532C62.0211 27.164 61.5011 26.656 61.1171 26.008C60.7331 25.352 60.5411 24.612 60.5411 23.788C60.5411 22.972 60.7331 22.24 61.1171 21.592C61.5011 20.936 62.0211 20.424 62.6771 20.056C63.3331 19.688 64.0531 19.504 64.8371 19.504C65.6291 19.504 66.3491 19.688 66.9971 20.056C67.6531 20.424 68.1691 20.936 68.5451 21.592C68.9291 22.24 69.1211 22.972 69.1211 23.788C69.1211 24.612 68.9291 25.352 68.5451 26.008C68.1691 26.656 67.6531 27.164 66.9971 27.532C66.3411 27.9 65.6211 28.084 64.8371 28.084ZM64.8371 26.584C65.3411 26.584 65.7851 26.472 66.1691 26.248C66.5531 26.016 66.8531 25.688 67.0691 25.264C67.2851 24.84 67.3931 24.348 67.3931 23.788C67.3931 23.228 67.2851 22.74 67.0691 22.324C66.8531 21.9 66.5531 21.576 66.1691 21.352C65.7851 21.128 65.3411 21.016 64.8371 21.016C64.3331 21.016 63.8851 21.128 63.4931 21.352C63.1091 21.576 62.8091 21.9 62.5931 22.324C62.3771 22.74 62.2691 23.228 62.2691 23.788C62.2691 24.348 62.3771 24.84 62.5931 25.264C62.8091 25.688 63.1091 26.016 63.4931 26.248C63.8851 26.472 64.3331 26.584 64.8371 26.584ZM73.5664 26.104C74.3344 25.464 74.9464 24.932 75.4024 24.508C75.8584 24.076 76.2384 23.628 76.5424 23.164C76.8464 22.7 76.9984 22.244 76.9984 21.796C76.9984 21.388 76.9024 21.068 76.7104 20.836C76.5184 20.604 76.2224 20.488 75.8224 20.488C75.4224 20.488 75.1144 20.624 74.8984 20.896C74.6824 21.16 74.5704 21.524 74.5624 21.988H72.9304C72.9624 21.028 73.2464 20.3 73.7824 19.804C74.3264 19.308 75.0144 19.06 75.8464 19.06C76.7584 19.06 77.4584 19.304 77.9464 19.792C78.4344 20.272 78.6784 20.908 78.6784 21.7C78.6784 22.324 78.5104 22.92 78.1744 23.488C77.8384 24.056 77.4544 24.552 77.0224 24.976C76.5904 25.392 76.0264 25.896 75.3304 26.488H78.8704V27.88H72.9424V26.632L73.5664 26.104ZM79.929 23.512C79.929 22.128 80.177 21.044 80.673 20.26C81.177 19.476 82.009 19.084 83.169 19.084C84.329 19.084 85.157 19.476 85.653 20.26C86.157 21.044 86.409 22.128 86.409 23.512C86.409 24.904 86.157 25.996 85.653 26.788C85.157 27.58 84.329 27.976 83.169 27.976C82.009 27.976 81.177 27.58 80.673 26.788C80.177 25.996 79.929 24.904 79.929 23.512ZM84.753 23.512C84.753 22.92 84.713 22.424 84.633 22.024C84.561 21.616 84.409 21.284 84.177 21.028C83.953 20.772 83.617 20.644 83.169 20.644C82.721 20.644 82.381 20.772 82.149 21.028C81.925 21.284 81.773 21.616 81.693 22.024C81.621 22.424 81.585 22.92 81.585 23.512C81.585 24.12 81.621 24.632 81.693 25.048C81.765 25.456 81.917 25.788 82.149 26.044C82.381 26.292 82.721 26.416 83.169 26.416C83.617 26.416 83.957 26.292 84.189 26.044C84.421 25.788 84.573 25.456 84.645 25.048C84.717 24.632 84.753 24.12 84.753 23.512ZM87.4948 21.4C87.4948 20.792 87.6708 20.316 88.0228 19.972C88.3828 19.628 88.8428 19.456 89.4028 19.456C89.9628 19.456 90.4188 19.628 90.7708 19.972C91.1308 20.316 91.3108 20.792 91.3108 21.4C91.3108 22.016 91.1308 22.496 90.7708 22.84C90.4188 23.184 89.9628 23.356 89.4028 23.356C88.8428 23.356 88.3828 23.184 88.0228 22.84C87.6708 22.496 87.4948 22.016 87.4948 21.4ZM95.1988 19.6L90.4828 28H88.8508L93.5548 19.6H95.1988ZM89.3908 20.464C88.9508 20.464 88.7308 20.776 88.7308 21.4C88.7308 22.032 88.9508 22.348 89.3908 22.348C89.6068 22.348 89.7748 22.272 89.8948 22.12C90.0148 21.96 90.0748 21.72 90.0748 21.4C90.0748 20.776 89.8468 20.464 89.3908 20.464ZM92.7628 26.188C92.7628 25.572 92.9388 25.096 93.2908 24.76C93.6508 24.416 94.1108 24.244 94.6708 24.244C95.2308 24.244 95.6828 24.416 96.0268 24.76C96.3788 25.096 96.5548 25.572 96.5548 26.188C96.5548 26.804 96.3788 27.284 96.0268 27.628C95.6828 27.972 95.2308 28.144 94.6708 28.144C94.1028 28.144 93.6428 27.972 93.2908 27.628C92.9388 27.284 92.7628 26.804 92.7628 26.188ZM94.6588 25.252C94.2028 25.252 93.9748 25.564 93.9748 26.188C93.9748 26.82 94.2028 27.136 94.6588 27.136C95.1068 27.136 95.3308 26.82 95.3308 26.188C95.3308 25.564 95.1068 25.252 94.6588 25.252Z" fill="#CA275A"/>
</svg>
