<svg width="53" height="42" viewBox="0 0 53 42" fill="none" xmlns="http://www.w3.org/2000/svg">
<path d="M11.8333 32C11.3139 32 10.8782 31.824 10.5262 31.472C10.1742 31.12 9.99878 30.6849 10 30.1667C10 29.6472 10.176 29.2115 10.528 28.8595C10.88 28.5075 11.3151 28.3321 11.8333 28.3333H41.1667C41.6861 28.3333 42.1218 28.5093 42.4738 28.8613C42.8258 29.2133 43.0012 29.6485 43 30.1667C43 30.6861 42.824 31.1218 42.472 31.4738C42.12 31.8258 41.6849 32.0012 41.1667 32H11.8333ZM11.8333 22.8333C11.3139 22.8333 10.8782 22.6573 10.5262 22.3053C10.1742 21.9533 9.99878 21.5182 10 21C10 20.4806 10.176 20.0448 10.528 19.6928C10.88 19.3408 11.3151 19.1655 11.8333 19.1667H41.1667C41.6861 19.1667 42.1218 19.3427 42.4738 19.6947C42.8258 20.0467 43.0012 20.4818 43 21C43 21.5195 42.824 21.9552 42.472 22.3072C42.12 22.6592 41.6849 22.8346 41.1667 22.8333H11.8333ZM11.8333 13.6667C11.3139 13.6667 10.8782 13.4907 10.5262 13.1387C10.1742 12.7867 9.99878 12.3516 10 11.8333C10 11.3139 10.176 10.8782 10.528 10.5262C10.88 10.1742 11.3151 9.99878 11.8333 10H41.1667C41.6861 10 42.1218 10.176 42.4738 10.528C42.8258 10.88 43.0012 11.3151 43 11.8333C43 12.3528 42.824 12.7885 42.472 13.1405C42.12 13.4925 41.6849 13.6679 41.1667 13.6667H11.8333Z" fill="#CA275A"/>
</svg>
