<svg width="45" height="46" viewBox="0 0 45 46" fill="none" xmlns="http://www.w3.org/2000/svg">
<path d="M15.5991 3.34597C15.7274 0.442637 19.496 -0.600362 21.0987 1.82389L26.9306 10.6449C27.6473 11.729 28.9807 12.2283 30.2333 11.8817L40.4247 9.06106C43.2256 8.28588 45.3821 11.5477 43.5717 13.8211L36.9847 22.0934C36.1751 23.1101 36.1122 24.5325 36.829 25.6167L42.6608 34.4376C44.2636 36.8619 41.8278 39.9208 39.1062 38.9016L29.2033 35.1932C27.9862 34.7374 26.614 35.1172 25.8044 36.1339L19.2173 44.4061C17.407 46.6796 13.7451 45.3083 13.8734 42.405L14.3401 31.8408C14.3975 30.5423 13.6123 29.3547 12.3951 28.8989L2.49222 25.1904C-0.229378 24.1713 -0.0567808 20.2648 2.7441 19.4897L12.9355 16.6691C14.1881 16.3224 15.075 15.2086 15.1324 13.9102L15.5991 3.34597Z" fill="#CA275A"/>
</svg>
